<?xml version="1.0" encoding="iso-8859-1"?>
<!-- Generator: Adobe Illustrator 18.1.1, SVG Export Plug-In . SVG Version: 6.00 Build 0)  -->
<svg version="1.1" id="Capa_1" xmlns="http://www.w3.org/2000/svg" xmlns:xlink="http://www.w3.org/1999/xlink" x="0px" y="0px"
	 viewBox="0 0 212.254 212.254" style="enable-background:new 0 0 212.254 212.254;" xml:space="preserve">
<g>
	<g>
		<path style="fill:#FFFFFF;" d="M201.335,76.824l-0.079-0.115c-1.775-2.43-3.618-4.946-5.551-7.755
			c-8.911-12.945-17.175-19.226-25.263-19.226c-0.372,0-0.744,0.007-1.117,0.039c-1.958-2.981-8.092-13.864-13.306-23.377
			c-5.758-8.797-11.148-13.478-16.524-14.294l-0.512-0.036c-1.922,0-3.575,1.364-4.928,4.091c-0.555,1.442-0.186,3.747,5.204,16.048
			c-3.969-6.646-8.471-13.163-14.09-15.26c-1.392-0.523-2.555-0.766-3.6-0.766c-2.162,0-3.271,1.07-3.826,1.979
			c-1.589,2.577-0.583,7.376,3.056,14.63c3.747,8.761,6.936,16.327,8.99,21.305c3.232,7.977,3.353,10.593,3.536,14.566l0.014,0.422
			c0.054,0.895,0.089,1.847,0.186,2.985c0.068,0.49-0.49,1.084-1.564,1.675c-0.941,0.515-1.843,0.802-2.53,0.802
			c-0.211,0-0.408-0.025-0.526-0.079c-5.826-2.591-10.275-4.642-13.256-6.116l-0.408-0.15c-10.98-2.541-21.144-3.826-30.188-3.826
			c-41.604,0-53.375,27.067-59.702,41.615l-0.469,1.099l-0.115,0.358c-2.788,13.231-4.552,26.244-5.264,38.695
			c-1.263-1.22-2.681-2.688-3.94-4.001c-4.667-4.885-7.211-7.426-9.495-7.426c-4.026,0-6.07,3.482-6.07,10.343
			c0,6.857,7.891,20.246,18.066,27.221c2.147,1.539,4.749,1.525,7.415-0.054c0.934-0.569,1.496-0.78,1.782-0.859
			c4.831,4.502,8.897,7.974,12.093,10.314c1.231,1.657,2.534,3.3,3.862,4.885c2.04,2.584,3.776,4.184,5.311,4.899
			c4.713,2.051,11.706,3.59,21.369,4.699c4.806,0.608,11.943,1.761,17.676,2.673l0.88,0.132c2.888,0.465,4.613,0.741,5.64,0.902
			l0.018,0.333l0.462-0.029c0.82-0.039,1.675-0.104,2.316-0.465c2.834-0.727,4.914-2.384,6.202-4.953
			c2.384-4.806,0.981-7.848-0.623-9.573c-0.802-0.83-2.781-2.394-6.045-4.767c-1.27-0.927-2.928-1.668-4.409-2.305
			c24.712,2.731,43.472,5.68,46.335,7.283c3.207,7.455,9.838,11.889,19.795,13.213c4.688,0,7.931-1.814,9.598-5.39
			c1.643-3.242,0.265-6.886-4.116-10.869l-6.553-4.86c-2.212-1.564-3.629-3.139-4.502-5.071c-2.026-2.953-1.879-4.144-1.843-4.355
			c0.029-0.107,0.068-0.251,0.372-0.426c7.122-3.89,13.571-10.049,19.161-18.299c5.139-7.584,7.974-15.171,8.425-22.575
			c6.474-0.422,15.346-5.404,21.713-9.548c7.866-5.111,11.853-11.137,11.853-17.905C212.258,91.744,207.441,85.159,201.335,76.824z
			 M146.715,167.129c-0.462,2.015,0.304,4.491,2.265,7.269c0.991,2.316,2.913,4.491,5.683,6.438l6.352,4.699
			c1.865,1.707,3.919,4.101,3.035,5.866c-0.981,2.094-2.795,3.071-5.63,3.085c-8.471-1.138-13.847-4.767-16.43-11.109
			c-0.555-1.26-1.829-4.198-49.757-9.402c5.336-3.575,10.046-7.151,13.997-10.647c9.437-8.024,13.861-15.135,13.145-21.133
			c-0.319-4.076-2.834-7.44-7.483-10.01c-3.01-1.643-7.093-3.021-12.139-4.066c-1.893-0.422-3.106-0.594-3.157-0.608l-0.462-0.068
			l-0.644,4.08l0.462,0.079c0.709,0.118,1.371,0.251,2.018,0.372l0.88,0.186c2.881,0.648,7.122,1.8,11.001,3.629
			c3.296,1.972,5.111,4.237,5.404,6.725c0.358,4.491-3.693,10.608-11.703,17.665c-5.887,5.003-12.479,9.269-16.083,11.599
			c-1.908,1.235-2.834,1.829-3.289,2.412l-4.534,2.645l7.043,3.139c0.644,0.637,1.689,1.088,3.178,1.721
			c1.371,0.569,3.085,1.296,4.144,2.051c4.101,2.992,5.193,3.983,5.461,4.277c0.422,0.451,1.535,1.643-0.079,4.885
			c-0.82,1.643-2.133,2.609-4.008,2.953c-0.701-0.093-2.741-0.412-5.082-0.784l-1.192-0.193c-5.343-0.859-13.414-2.158-18.71-2.831
			c-9.122-1.049-15.915-2.516-20.181-4.373c-0.404-0.172-1.568-0.913-3.801-3.733c-1.324-1.575-2.648-3.257-3.987-5.046l-0.39-0.379
			c-3.146-2.294-7.329-5.869-12.472-10.661c-0.591-0.437-1.317-0.666-2.097-0.666c-1.152,0-2.502,0.48-4.119,1.485
			c-1.292,0.755-2.044,0.82-2.92,0.211c-8.775-6.034-16.302-18.152-16.302-23.846c0-3.826,0.723-6.209,1.782-6.234
			c0.963,0.211,4.656,4.066,6.667,6.17c2.079,2.183,3.933,4.101,5.59,5.522l3.418,2.967v-3.55c1.177-0.583,1.689-1.51,1.925-2.265
			l0.075-0.462c0.662-12.436,2.409-25.464,5.171-38.648l0.397-0.913c6.363-14.637,17.007-39.135,55.905-39.135
			c8.679,0,18.46,1.238,28.967,3.65c3.085,1.528,7.548,3.586,13.267,6.123c1.936,0.773,4.119,0.483,6.66-0.898
			c3.547-1.961,3.84-4.431,3.693-5.708c-0.089-1.124-0.132-2.097-0.172-3.021l-0.014-0.179c-0.2-4.23-0.333-7.29-3.84-15.937
			c-1.986-4.846-5.111-12.233-9.019-21.398l-0.172-0.319c-3.547-7.072-3.497-9.971-3.153-10.547c0,0,0.465-0.193,2.452,0.548
			c5.322,1.986,10.289,10.533,14.287,17.44c3.84,6.614,6.861,11.839,10.475,12.673l0.809,0.186l0.716-0.422
			c1.696-1.006,1.614-1.167-2.119-9.377c-2.623-5.733-9.52-20.836-9.881-23.835c0.598-1.084,0.981-1.267,0.941-1.285
			c4.026,0.623,8.578,4.785,13.517,12.326c13.532,24.701,14.276,25.485,15.983,25.485l0.293-0.014
			c6.95-1.099,14.895,4.749,23.556,17.311c1.865,2.724,3.654,5.179,5.39,7.541l0.315,0.437c5.884,8.024,10.117,13.818,10.117,20.027
			c0,5.358-3.257,10.074-9.971,14.448c-9.455,6.159-17.093,9.377-21.198,8.861l-2.33-0.29v2.326c0,7.219-2.62,14.752-7.788,22.364
			c-5.218,7.705-11.187,13.428-17.744,17.003C147.839,164.745,147.019,165.819,146.715,167.129z"/>
		<path style="fill:#FFFFFF;" d="M173.474,83.706c5.057,0,9.165-4.109,9.165-9.169c0-5.053-4.105-9.162-9.165-9.162
			s-9.165,4.109-9.165,9.162C164.312,79.597,168.417,83.706,173.474,83.706z M173.474,69.508c2.781,0,5.046,2.258,5.046,5.032
			c0,2.781-2.265,5.046-5.046,5.046c-2.777,0-5.032-2.265-5.032-5.046C168.442,71.763,170.697,69.508,173.474,69.508z"/>
	</g>
</g>
<g>
</g>
<g>
</g>
<g>
</g>
<g>
</g>
<g>
</g>
<g>
</g>
<g>
</g>
<g>
</g>
<g>
</g>
<g>
</g>
<g>
</g>
<g>
</g>
<g>
</g>
<g>
</g>
<g>
</g>
</svg>
